<svg width="27" height="25" fill="none" xmlns="http://www.w3.org/2000/svg"><path d="M21.95 23.267h-.111c-.61 0-1.121-.5-1.165-1.138-.045-.668.444-1.25 1.089-1.294a1.196 1.196 0 011.258 1.114c.01.248-.03.602-.285.895l-.006.007-.006.007a1.158 1.158 0 01-.773.409zM8.22 23.26c-.65 0-1.18-.543-1.18-1.21 0-.667.53-1.21 1.18-1.21.65 0 1.18.543 1.18 1.21 0 .667-.53 1.21-1.18 1.21z" fill="#fff"/><path d="M21.876 22.266a.146.146 0 00.084-.053 3.08 3.08 0 01.023-.027c.037-.042.04-.13.04-.175-.014-.107-.104-.18-.182-.18h-.01c-.078.006-.166.11-.16.232.01.116.096.203.168.203h.037zM8.22 22.26c.099 0 .18-.095.18-.21 0-.116-.081-.21-.18-.21-.1 0-.18.094-.18.21 0 .116.08.21.18.21zM22 24.266h-.16c-1.138 0-2.083-.911-2.163-2.068-.08-1.205.817-2.28 2.018-2.362.05-.003.098-.005.146-.005 1.139 0 2.1.901 2.178 2.057.032.603-.145 1.173-.53 1.613a2.16 2.16 0 01-1.49.765zM8.22 24.26c-1.205 0-2.18-.99-2.18-2.21s.975-2.21 2.18-2.21c1.204 0 2.18.99 2.18 2.21s-.976 2.21-2.18 2.21zm12.978-6.866H9.133a.965.965 0 01-.93-.716L4.278 2.247H1.522A.972.972 0 01.56 1.27c0-.537.432-.977.96-.977H5c.432 0 .817.293.93.717l3.925 14.43h10.704l3.556-8.306H12.258a.973.973 0 01-.962-.978c0-.537.433-.977.962-.977h13.33a.95.95 0 01.802.44 1 1 0 01.08.928l-4.39 10.26a.963.963 0 01-.882.587z" fill="#fff"/><path d="M21.876 22.266a.146.146 0 00.084-.053 3.08 3.08 0 01.023-.027c.037-.042.04-.13.04-.175-.014-.107-.104-.18-.182-.18h-.01c-.078.006-.166.11-.16.232.01.116.096.203.168.203h.037zM8.22 22.26c.099 0 .18-.095.18-.21 0-.116-.081-.21-.18-.21-.1 0-.18.094-.18.21 0 .116.08.21.18.21zM22 24.266h-.16c-1.138 0-2.083-.911-2.163-2.068-.08-1.205.817-2.28 2.018-2.362.05-.003.098-.005.146-.005 1.139 0 2.1.901 2.178 2.057.032.603-.145 1.173-.53 1.613a2.16 2.16 0 01-1.49.765zM8.22 24.26c-1.205 0-2.18-.99-2.18-2.21s.975-2.21 2.18-2.21c1.204 0 2.18.99 2.18 2.21s-.976 2.21-2.18 2.21zm12.978-6.866H9.133a.965.965 0 01-.93-.716L4.278 2.247H1.522A.972.972 0 01.56 1.27c0-.537.432-.977.96-.977H5c.432 0 .817.293.93.717l3.925 14.43h10.704l3.556-8.306H12.258a.973.973 0 01-.962-.978c0-.537.433-.977.962-.977h13.33a.95.95 0 01.802.44 1 1 0 01.08.928l-4.39 10.26a.963.963 0 01-.882.587z" fill="#fff"/></svg>