<svg width="16" height="15" fill="none" xmlns="http://www.w3.org/2000/svg"><path d="M13.982 1.665h0c.75.747 1.004 1.66 1.057 2.787l.5-.023-.5.028c.07 1.21.07 4.87 0 6.08v.002c-.056 1.13-.31 2.043-1.057 2.79h-.001c-.748.75-1.662 1.002-2.793 1.056h0-.004c-1.212.069-4.881.069-6.093 0h-.003c-1.131-.057-2.043-.31-2.796-1.057-.75-.747-1.003-1.659-1.057-2.787h0v-.005c-.069-1.21-.069-4.873 0-6.082h0V4.45c.057-1.13.307-2.042 1.057-2.788.752-.748 1.667-1 2.794-1.054h.005C6.303.54 9.972.54 11.184.608h.003c1.132.057 2.046.31 2.795 1.057zm-1.266 12.097h.002a3.013 3.013 0 001.695-1.694c.232-.582.305-1.493.331-2.323.02-.611.013-1.238.008-1.736a52.588 52.588 0 010-1.025c.005-.498.011-1.123-.008-1.735-.026-.829-.099-1.74-.33-2.323l-.001-.002a3.013 3.013 0 00-1.696-1.693h-.002c-.58-.23-1.493-.302-2.324-.329A42.904 42.904 0 008.642.894L8.14.897 7.625.894A42.506 42.506 0 005.888.9c-.83.026-1.743.1-2.326.33h0-.002a3.013 3.013 0 00-1.695 1.694h0l-.001.002c-.23.58-.303 1.491-.33 2.32a43.26 43.26 0 00-.008 1.747c.002.189.004.36.004.503 0 .146-.002.32-.004.512a42.64 42.64 0 00.008 1.735c.026.83.099 1.74.33 2.323l.001.002c.314.78.916 1.383 1.696 1.693h.001c.582.23 1.494.303 2.325.329.617.02 1.248.013 1.749.009.189-.002.36-.004.503-.004.146 0 .32.002.514.004.498.005 1.125.011 1.737-.008.83-.026 1.743-.099 2.326-.33zM4.818 7.497a3.312 3.312 0 013.321-3.315c1.84 0 3.321 1.48 3.321 3.315a3.312 3.312 0 01-3.321 3.315 3.312 3.312 0 01-3.321-3.315zm.337 0a2.987 2.987 0 002.984 2.98 2.987 2.987 0 002.984-2.98 2.985 2.985 0 00-5.968 0zm7.353-3.971c0 .216-.173.39-.391.39a.39.39 0 11.391-.39zm1.827 10.156c.871-.87 1.144-1.925 1.204-3.117L5.063.109C3.873.165 2.815.438 1.94 1.308 1.065 2.178.796 3.233.736 4.425c-.07 1.229-.07 4.911 0 6.14.057 1.192.33 2.247 1.204 3.117.875.87 1.929 1.143 3.123 1.202 1.23.07 4.918.07 6.149 0 1.194-.056 2.251-.328 3.123-1.202z" fill="#000" stroke="#000"/></svg>